HIERARCHY
ROOT Hips
{
  OFFSET 49.7469 96.0681 5.74137
  CHANNELS 6 Xposition Yposition Zposition Zrotation Xrotation Yrotation
  JOINT spine
  {
    OFFSET 0 8.13249 0.467659
    CHANNELS 3 Zrotation Xrotation Yrotation
    JOINT spine1
    {
      OFFSET 0 10.3498 0
      CHANNELS 3 Zrotation Xrotation Yrotation
      JOINT spine2
      {
        OFFSET 0 9.91699 0
        CHANNELS 3 Zrotation Xrotation Yrotation
        JOINT Neck
        {
          OFFSET 0 25.461 1.2139
          CHANNELS 3 Zrotation Xrotation Yrotation
          JOINT Head
          {
            OFFSET 0 7.69245 0
            CHANNELS 3 Zrotation Xrotation Yrotation
            End Site
            {
              OFFSET 0 18.62 -6.14063
            }
          }
        }
        JOINT RightShoulder
        {
          OFFSET -4.17575 10.7096 -0.581445
          CHANNELS 3 Zrotation Xrotation Yrotation
          JOINT RightArm
          {
            OFFSET 0 14.0466 0
            CHANNELS 3 Zrotation Xrotation Yrotation
            JOINT RightArmRoll
            {
              OFFSET 0 7.09098 0
              CHANNELS 3 Zrotation Xrotation Yrotation
              JOINT RightForeArm
              {
                OFFSET 0 20.6535 0
                CHANNELS 3 Zrotation Xrotation Yrotation
                JOINT RightForeArmRoll
                {
                  OFFSET 0 7.95718 0
                  CHANNELS 3 Zrotation Xrotation Yrotation
                  JOINT RightHand
                  {
                    OFFSET 0 15.9683 0
                    CHANNELS 3 Zrotation Xrotation Yrotation
                    End Site
                    {
                      OFFSET 0 0 0
                    }
                  }
                }
              }
            }
          }
        }
        JOINT LeftShoulder
        {
          OFFSET 4.17575 10.7096 -0.581445
          CHANNELS 3 Zrotation Xrotation Yrotation
          JOINT LeftArm
          {
            OFFSET 0 14.0466 0
            CHANNELS 3 Zrotation Xrotation Yrotation
            JOINT LeftArmRoll
            {
              OFFSET 0 7.09098 0
              CHANNELS 3 Zrotation Xrotation Yrotation
              JOINT LeftForeArm
              {
                OFFSET 0 20.6535 0
                CHANNELS 3 Zrotation Xrotation Yrotation
                JOINT LeftForeArmRoll
                {
                  OFFSET 0 7.95718 0
                  CHANNELS 3 Zrotation Xrotation Yrotation
                  JOINT LeftHand
                  {
                    OFFSET 0 15.9683 0
                    CHANNELS 3 Zrotation Xrotation Yrotation
                    End Site
                    {
                      OFFSET 0 0 0
                    }
                  }
                }
              }
            }
          }
        }
      }
    }
  }
  JOINT RightUpLeg
  {
    OFFSET -7.20834 -1.32182 -1.10884
    CHANNELS 3 Zrotation Xrotation Yrotation
    JOINT RightUpLegRoll
    {
      OFFSET 0 18.7238 0
      CHANNELS 3 Zrotation Xrotation Yrotation
      JOINT RightLeg
      {
        OFFSET 0 -23.1866 0
        CHANNELS 3 Zrotation Xrotation Yrotation
        JOINT RightLegRoll
        {
          OFFSET 0 23.2624 0
          CHANNELS 3 Zrotation Xrotation Yrotation
          JOINT RightFoot
          {
            OFFSET 0 19.3621 0
            CHANNELS 3 Zrotation Xrotation Yrotation
            JOINT RightToeBase
            {
              OFFSET 0 16.1857 0
              CHANNELS 3 Zrotation Xrotation Yrotation
              End Site
              {
                OFFSET 0.00686052 7.83863 -0.903522
              }
            }
          }
        }
      }
    }
  }
  JOINT LeftUpLeg
  {
    OFFSET 7.20834 -1.32182 -1.10884
    CHANNELS 3 Zrotation Xrotation Yrotation
    JOINT LeftUpLegRoll
    {
      OFFSET 0 18.7239 0
      CHANNELS 3 Zrotation Xrotation Yrotation
      JOINT LeftLeg
      {
        OFFSET 0 23.1865 0
        CHANNELS 3 Zrotation Xrotation Yrotation
        JOINT LeftLegRoll
        {
          OFFSET 0 23.4775 0
          CHANNELS 3 Zrotation Xrotation Yrotation
          JOINT LeftFoot
          {
            OFFSET 0 19.147 0
            CHANNELS 3 Zrotation Xrotation Yrotation
            JOINT LeftToeBase
            {
              OFFSET 0 16.1857 0
              CHANNELS 3 Zrotation Xrotation Yrotation
              End Site
              {
                OFFSET -0.0307459 7.83863 -0.903522
              }
            }
          }
        }
      }
    }
  }
}
MOTION
Frames: 12
Frame Time: 0.00208333
48.3407 94.4259 7.2538 -1.40455 -5.03672 0.679981 0.338501 -0.751006 0.188935 0.67814 2.50174 0.335541 0.674838 4.14674 0.324432 7.66345 -4.00934 -3.9851 -12.2437 7.00951 -3.6355 27.8965 -21.7518 -19.2128 -9.09662 41.7793 107.231 -4.34044e-006 6.11064e-006 1.97868e-006 -8.98772 48.8531 8.49636 -8.69122e-007 -1.265e-007 -3.00322 8.02917 -4.95143 0.697667 -21.5545 -18.2491 16.3011 0.481215 40.1434 -102.145 -8.38821e-006 -1.19584e-006 2.89692e-006 6.90539 40.5822 -4.51682 -1.67715e-006 3.1641e-006 3.00104 -8.02896 -4.95148 -0.697666 165.861 8.18958 4.54965 -180 7.01508e-015 178.765 -173.722 29.1985 177.254 -7.77409e-007 -2.57591e-006 0.827182 -19.9349 69.7958 21.2134 8.15709 27.9743 -0.408675 -165.02 4.41305 -0.725712 4.54188e-006 -4.6773e-006 -1.34842 10.4216 -27.817 3.34052 -2.54712e-006 2.19838e-006 -1.3002 21.2817 71.5146 -22.9502 -8.14117 28.3446 0.0975894 
48.3401 94.7316 7.25757 -1.37812 -5.0198 0.664042 0.329947 -0.767964 0.187337 0.661051 2.46779 0.332705 0.657759 4.11279 0.321878 7.67407 -4.02239 -3.94663 -12.1938 7.11663 -3.58283 28.074 -21.658 -19.0655 -8.55595 41.9386 106.673 -4.34044e-006 6.11064e-006 1.97868e-006 -8.98957 48.4243 8.38205 -8.69122e-007 -1.265e-007 -3.00323 8.02917 -4.95143 0.697667 -21.8061 -18.1291 16.1074 -0.0282774 40.1678 -101.677 -8.38822e-006 -1.19584e-006 2.89692e-006 6.78814 40.879 -4.46271 -1.67715e-006 3.1641e-006 3.00104 -8.02896 -4.95148 -0.697666 165.829 8.00616 4.59461 -180 7.01509e-015 178.767 -173.906 28.57 177.343 -7.77409e-007 -2.57591e-006 0.747324 -19.6643 69.4382 20.8707 8.16929 27.717 -0.707025 -164.98 4.17202 -0.747561 4.54188e-006 -4.6773e-006 -1.33581 10.1462 -27.0077 3.19797 -2.54712e-006 2.1984e-006 -1.13544 20.7599 70.8934 -22.2555 -8.15854 28.0521 0.428018 
48.3378 95.0479 7.24237 -1.35037 -5.00282 0.646414 0.321249 -0.784641 0.185645 0.64367 2.43441 0.329668 0.64039 4.07941 0.319128 7.67713 -4.03658 -3.90736 -12.136 7.22792 -3.52957 28.2518 -21.5603 -18.9148 -7.9994 42.0953 106.102 -4.34044e-006 6.11064e-006 1.97868e-006 -8.99305 47.9869 8.26822 -8.69122e-007 -1.265e-007 -3.00324 8.02917 -4.95143 0.697667 -22.0672 -18.0093 15.9134 -0.538933 40.1862 -101.214 -8.38821e-006 -1.19584e-006 2.89692e-006 6.67049 41.1838 -4.40967 -1.67715e-006 3.1641e-006 3.00105 -8.02896 -4.95148 -0.697666 165.796 7.82802 4.63952 -180 7.01509e-015 178.769 -174.085 27.9503 177.429 -7.77409e-007 -2.57592e-006 0.672952 -19.4149 69.1037 20.556 8.17903 27.4405 -1.02528 -164.942 3.93106 -0.769741 4.54188e-006 -4.6773e-006 -1.32343 9.87373 -26.1977 3.05768 -2.54712e-006 2.19843e-006 -0.974306 20.2829 70.2834 -21.6108 -8.17291 27.7381 0.779751 
48.3386 95.3607 7.24337 -1.32164 -4.98611 0.627161 0.31249 -0.800967 0.183879 0.626165 2.40173 0.326486 0.622899 4.04673 0.316236 7.67328 -4.0497 -3.868 -12.0716 7.34004 -3.4766 28.4314 -21.459 -18.7608 -7.43099 42.248 105.521 -4.34044e-006 6.11064e-006 1.97868e-006 -8.99689 47.5458 8.15486 -8.69122e-007 -1.265e-007 -3.00325 8.02917 -4.95143 0.697667 -22.337 -17.8904 15.7203 -1.04929 40.1994 -100.757 -8.38821e-006 -1.19584e-006 2.89692e-006 6.5531 41.4936 -4.3576 -1.67715e-006 3.1641e-006 3.00105 -8.02896 -4.95148 -0.697666 165.764 7.65462 4.68369 -180 7.0151e-015 178.771 -174.258 27.3401 177.512 -7.7741e-007 -2.57594e-006 0.603687 -19.1846 68.791 20.2667 8.18552 27.1516 -1.35526 -164.905 3.69111 -0.791819 4.54188e-006 -4.67731e-006 -1.31143 9.60645 -25.3914 2.92043 -2.54712e-006 2.19845e-006 -0.817726 19.8488 69.6885 -21.0155 -8.18326 27.4102 1.14383 
48.3386 95.6742 7.21204 -1.29228 -4.96995 0.606348 0.303753 -0.816871 0.182065 0.608704 2.36989 0.323216 0.605453 4.0149 0.313254 7.66314 -4.05951 -3.82922 -12.0018 7.44967 -3.4248 28.6143 -21.3545 -18.6036 -6.85484 42.3951 104.93 -4.34044e-006 6.11064e-006 1.97868e-006 -8.99978 47.1061 8.04191 -8.69122e-007 -1.265e-007 -3.00326 8.02917 -4.95143 0.697667 -22.6147 -17.7731 15.5291 -1.55785 40.2082 -100.308 -8.38821e-006 -1.19584e-006 2.89692e-006 6.43665 41.8054 -4.30639 -1.67715e-006 3.1641e-006 3.00105 -8.02896 -4.95148 -0.697666 165.735 7.48541 4.72645 -180 7.0151e-015 178.773 -174.426 26.7403 177.592 -7.77412e-007 -2.57596e-006 0.539148 -18.9719 68.4987 20.0008 8.18831 26.8571 -1.68898 -164.873 3.45311 -0.813361 4.54188e-006 -4.6773e-006 -1.29998 9.34661 -24.5931 2.78697 -2.54713e-006 2.19848e-006 -0.66662 19.4557 69.1123 -20.4687 -8.189 27.0761 1.51148 
48.3319 95.9871 7.21251 -1.26266 -4.95466 0.584038 0.295123 -0.832284 0.180224 0.591453 2.33903 0.319912 0.588218 3.98404 0.310235 7.64732 -4.0638 -3.79174 -11.9277 7.55344 -3.37507 28.8021 -21.247 -18.4434 -6.27519 42.5355 104.331 -4.34044e-006 6.11064e-006 1.97868e-006 -9.00036 46.6727 7.92922 -8.69122e-007 -1.265e-007 -3.00327 8.02917 -4.95143 0.697667 -22.8994 -17.6582 15.3411 -2.06322 40.2136 -99.8668 -8.38821e-006 -1.19584e-006 2.89692e-006 6.32183 42.1162 -4.25595 -1.67715e-006 3.1641e-006 3.00105 -8.02896 -4.95148 -0.697666 165.709 7.31986 4.76711 -180 7.0151e-015 178.774 -174.587 26.1519 177.669 -7.77413e-007 -2.57599e-006 0.478956 -18.7755 68.2255 19.7564 8.1873 26.5641 -2.01859 -164.845 3.21801 -0.833936 4.54188e-006 -4.67731e-006 -1.28925 9.09635 -23.8072 2.65799 -2.54713e-006 2.19849e-006 -0.521908 19.1018 68.5589 -19.9696 -8.18996 26.7437 1.87416 
48.3362 96.2961 7.19759 -1.23313 -4.94053 0.560297 0.286683 -0.847135 0.178379 0.57458 2.3093 0.31663 0.571363 3.95432 0.307232 7.62643 -4.06034 -3.75624 -11.8507 7.64802 -3.32829 28.9964 -21.1369 -18.2803 -5.69636 42.6677 103.726 -4.34044e-006 6.11064e-006 1.97868e-006 -8.99723 46.2505 7.8166 -8.69122e-007 -1.265e-007 -3.00328 8.02917 -4.95143 0.697667 -23.1902 -17.5463 15.1573 -2.56395 40.2163 -99.4345 -8.38821e-006 -1.19584e-006 2.89692e-006 6.20932 42.4231 -4.20618 -1.67715e-006 3.1641e-006 3.00106 -8.02896 -4.95148 -0.697666 165.687 7.1574 4.80502 -180 7.01511e-015 178.776 -174.742 25.5756 177.744 -7.77415e-007 -2.57601e-006 0.422731 -18.5944 67.9701 19.532 8.18276 26.2796 -2.33639 -164.823 2.98674 -0.853111 4.54188e-006 -4.6773e-006 -1.27939 8.85773 -23.038 2.53415 -2.54713e-006 2.1985e-006 -0.384511 18.785 68.0319 -19.5173 -8.18642 26.421 2.2235 
48.3378 96.6104 7.18992 -1.20403 -4.92789 0.535188 0.278518 -0.861356 0.176555 0.558254 2.28083 0.313426 0.555054 3.92585 0.304298 7.60109 -4.04693 -3.72341 -11.7718 7.73007 -3.28535 29.1987 -21.0244 -18.1144 -5.12273 42.7905 103.116 -4.34044e-006 6.11064e-006 1.97868e-006 -8.98892 45.8446 7.70382 -8.69122e-007 -1.265e-007 -3.00329 8.02917 -4.95143 0.697667 -23.4866 -17.4383 14.979 -3.05875 40.2175 -99.0117 -8.38821e-006 -1.19584e-006 2.89692e-006 6.09983 42.7231 -4.15699 -1.67715e-006 3.1641e-006 3.00106 -8.02896 -4.95148 -0.697666 165.671 6.9975 4.83949 -180 7.01511e-015 178.777 -174.89 25.0125 177.816 -7.77417e-007 -2.57604e-006 0.370092 -18.4279 67.7311 19.3264 8.17528 26.0105 -2.63485 -164.808 2.76025 -0.870454 4.54188e-006 -4.67731e-006 -1.27056 8.63274 -22.2898 2.41608 -2.54713e-006 2.1985e-006 -0.255351 18.5034 67.5353 -19.1111 -8.1791 26.1158 2.55131 
48.3394 96.914 7.17538 -1.17573 -4.91702 0.508775 0.270711 -0.874874 0.174773 0.542643 2.25377 0.310354 0.53946 3.89879 0.301485 7.57191 -4.02133 -3.69396 -11.6921 7.79625 -3.24715 29.4106 -20.9098 -17.9459 -4.55884 42.9028 102.503 -4.34044e-006 6.11064e-006 1.97868e-006 -8.97392 45.4597 7.59057 -8.69122e-007 -1.265e-007 -3.0033 8.02917 -4.95143 0.697667 -23.7875 -17.3348 14.8073 -3.54626 40.2179 -98.5991 -8.38821e-006 -1.19584e-006 2.89692e-006 5.99409 43.0133 -4.10828 -1.67715e-006 3.1641e-006 3.00106 -8.02896 -4.95148 -0.697666 165.662 6.83961 4.86985 -180 7.01512e-015 178.779 -175.032 24.4633 177.886 -7.77419e-007 -2.57606e-006 0.320661 -18.2753 67.5071 19.1384 8.16573 25.7642 -2.90653 -164.801 2.53949 -0.885532 4.54188e-006 -4.6773e-006 -1.26293 8.42331 -21.5671 2.3044 -2.54714e-006 2.19849e-006 -0.135348 18.2555 67.0728 -18.7504 -8.16903 25.8363 2.84955 
48.3387 97.2274 7.16616 -1.14858 -4.90823 0.481121 0.263345 -0.887622 0.173057 0.527916 2.22824 0.307472 0.524748 3.87327 0.298846 7.5395 -3.98132 -3.66859 -11.613 7.8432 -3.21457 29.6336 -20.7934 -17.7749 -4.00928 43.0035 101.889 -4.34044e-006 6.11064e-006 1.97868e-006 -8.95068 45.101 7.47652 -8.69122e-007 -1.265e-007 -3.00331 8.02917 -4.95143 0.697667 -24.0925 -17.2367 14.6433 -4.02517 40.2186 -98.1973 -8.38821e-006 -1.19584e-006 2.89692e-006 5.89281 43.2906 -4.05997 -1.67715e-006 3.1641e-006 3.00106 -8.02896 -4.95148 -0.697666 165.66 6.68318 4.89543 -180 7.01512e-015 178.78 -175.166 23.929 177.953 -7.7742e-007 -2.57607e-006 0.274056 -18.1362 67.2967 18.9671 8.15524 25.5476 -3.1441 -164.803 2.3254 -0.897912 4.54188e-006 -4.6773e-006 -1.25667 8.23131 -20.8743 2.19971 -2.54714e-006 2.19847e-006 -0.0254238 18.0396 66.6484 -18.4348 -8.15755 25.5906 3.11028 
48.3381 97.5212 7.15243 -1.12294 -4.90184 0.452291 0.256506 -0.899529 0.17143 0.514239 2.20441 0.304833 0.511086 3.84943 0.296433 7.50445 -3.92469 -3.64798 -11.5354 7.86759 -3.18851 29.8693 -20.6756 -17.6015 -3.47869 43.0915 101.276 -4.34044e-006 6.11064e-006 1.97868e-006 -8.91759 44.7734 7.36129 -8.69122e-007 -1.265e-007 -3.00332 8.02917 -4.95143 0.697667 -24.4006 -17.1447 14.488 -4.49426 40.2205 -97.807 -8.38822e-006 -1.19584e-006 2.89692e-006 5.79674 43.5521 -4.01199 -1.67715e-006 3.1641e-006 3.00107 -8.02896 -4.95148 -0.697666 165.668 6.52766 4.91556 -180 7.01512e-015 178.781 -175.293 23.4105 178.017 -7.77421e-007 -2.57608e-006 0.229898 -18.0104 67.0986 18.8119 8.14506 25.3681 -3.34026 -164.815 2.11892 -0.907162 4.54188e-006 -4.6773e-006 -1.25192 8.05856 -20.2155 2.10259 -2.54714e-006 2.19843e-006 0.0735013 17.8545 66.2659 -18.164 -8.14618 25.3867 3.32563 
48.3381 97.8346 7.14162 -1.09917 -4.89814 0.422349 0.250276 -0.910524 0.169914 0.501782 2.1824 0.302495 0.498642 3.82743 0.2943 7.4674 -3.84921 -3.63284 -11.4605 7.86607 -3.16985 30.1193 -20.5567 -17.4259 -2.97184 43.1661 100.667 -4.34044e-006 6.11064e-006 1.97868e-006 -8.87302 44.4817 7.24446 -8.69122e-007 -1.265e-007 -3.00333 8.02917 -4.95143 0.697667 -24.7111 -17.0596 14.3427 -4.95224 40.2246 -97.4285 -8.38822e-006 -1.19584e-006 2.89692e-006 5.70663 43.7948 -3.96424 -1.67715e-006 3.1641e-006 3.00107 -8.02896 -4.95148 -0.697666 165.686 6.3725 4.92957 -180 7.01512e-015 178.782 -175.412 22.9086 178.079 -7.77421e-007 -2.57607e-006 0.187808 -17.8977 66.9114 18.6719 8.13649 25.2326 -3.48773 -164.839 1.92099 -0.912848 4.54188e-006 -4.6773e-006 -1.24887 7.90686 -19.5954 2.01363 -2.54714e-006 2.19838e-006 0.160506 17.6992 65.9291 -17.9384 -8.13649 25.2326 3.48774 
